# xmcd
#
# Track frame offsets: 
#        150
#        11497
#        24019
#        32503
#        43972
#        57774
#        67429
#        77456
#        90225
#        102844
#        113621
#        122557
#        136481
#        150485
#        160390
#        174184
#        185455
#        193917
#        207573
#        217971
#        232185
#        242186
#        252826
#        266167
#        276316
#        287419
#
# Disc length: 4044 seconds
#
# Revision: 2
# Processed by: cddbd v1.5.2PL0 Copyright (c) Steve Scherf et al.
# Submitted via: ExactAudioCopy v1.0b1
#
DISCID=6b0fca1a
DTITLE=Various Artist - Sue's Rock'N'Blues:  The UK Sue Story Vol. 2
DYEAR=2004
DGENRE=Blues
TTITLE0=Bobby Hendricks - Itchy Twitchy Feeling (mono)
TTITLE1=Homesick James - Crossroads (mono)
TTITLE2=Big Al Downing - Yes, I'm Loving You (mono)
TTITLE3=The Megatons - Shimmy Shimmy Walk (Part 1) (mono)
TTITLE4=Willie Mabon - I'm the Fixer (mono)
TTITLE5=The Bobby Peterson Quintet - Rockin' Charlie (Part 1) (mono)
TTITLE6=J.B. Lenoir and His African Hunch Rhythm - I Feel So Good (mono)
TTITLE7=Lee Diamond - Hatti Malatti (mono)
TTITLE8=Freddy King - Driving Sideways (mono)
TTITLE9=Frankie Lee Sims - What Will Lucy Do (Lucy Mae Blues) (mono)
TTITLE10=Paul Revere and The Raiders - Like Long Hair (mono)
TTITLE11=Elmore James and His Broomdusters - It Hurts Me Too (mono)
TTITLE12=Etta James and The Peaches - The Wallflower (Roll With Me, Henr
TTITLE12=y) (mono)
TTITLE13=James Brown and The Famous Flames - Why Does Everything Always 
TTITLE13=Happen To Me (mono)
TTITLE14=Lightnin' Hopkins - Mojo Hand (mono)
TTITLE15=Gene and Al's Spacemen - Mercy (mono)
TTITLE16=Big Bob - Your Line Was Busy (mono)
TTITLE17=Rosie and The Originals - Give Me Love (mono)
TTITLE18=Ronnie Hawkins and The Hawks - Forty Days (stereo)
TTITLE19=John Lee Hooker - Boogie Chillun (mono)
TTITLE20=Otis Redding - Shout Bamalama (mono)
TTITLE21=The Righteous Brothers - Little Latin Lupe Lu (mono)
TTITLE22=Buster Brown - Fannie Mae (stereo)
TTITLE23=Professor Longhair - Baby Let Me Hold Your Hand (mono)
TTITLE24=B.B. King - You Never Know (mono)
TTITLE25=Dr. Horse - Jack, That Cat Was Clean (stereo)
EXTD=
EXTT0=
EXTT1=
EXTT2=
EXTT3=
EXTT4=
EXTT5=
EXTT6=
EXTT7=
EXTT8=
EXTT9=
EXTT10=
EXTT11=
EXTT12=
EXTT13=
EXTT14=
EXTT15=
EXTT16=
EXTT17=
EXTT18=
EXTT19=
EXTT20=
EXTT21=
EXTT22=
EXTT23=
EXTT24=
EXTT25=
PLAYORDER=
